P2
# 4.pgm
2 2
3

0 1
2 3
